<?xml version="1.0"?>
<svg xmlns="http://www.w3.org/2000/svg" xmlns:xlink="http://www.w3.org/1999/xlink" xmlns:svgjs="http://svgjs.com/svgjs" version="1.1" width="512" height="512" x="0" y="0" viewBox="0 0 512 512" style="enable-background:new 0 0 512 512" xml:space="preserve" class=""><g><g xmlns="http://www.w3.org/2000/svg" id="Outline"><path d="M146.343,357.657l11.314-11.314L67.314,256l224-224H424V64H406.624a24,24,0,1,0,0,16H424v84.686L266.343,322.343l11.314,11.314,160-160A8,8,0,0,0,440,168V128h24a32,32,0,0,0,0-64H440V24a8,8,0,0,0-8-8H288a8,8,0,0,0-5.657,2.343l-232,232a8,8,0,0,0,0,11.314ZM376,72a8.009,8.009,0,0,1,8-8V80A8.009,8.009,0,0,1,376,72Zm88,8a16,16,0,0,1,0,32H440V80Z" fill="#2de149" data-original="#000000" style="" class=""/><path d="M233.186,173.854a25.5,25.5,0,0,0,16.32,16.591,24.815,24.815,0,0,0,10.238,19.39,26.346,26.346,0,0,0,23.474,4.22,26.687,26.687,0,0,0,41.564,0,26.347,26.347,0,0,0,23.474-4.22,24.815,24.815,0,0,0,10.238-19.39,25.5,25.5,0,0,0,16.32-16.591A24.469,24.469,0,0,0,371.489,152a24.469,24.469,0,0,0,3.325-21.854,25.5,25.5,0,0,0-16.32-16.591,24.815,24.815,0,0,0-10.238-19.39,26.343,26.343,0,0,0-23.474-4.22,26.687,26.687,0,0,0-41.564,0,26.347,26.347,0,0,0-23.474,4.22,24.816,24.816,0,0,0-10.238,19.39,25.5,25.5,0,0,0-16.32,16.591A24.469,24.469,0,0,0,236.511,152,24.469,24.469,0,0,0,233.186,173.854Zm19.123-28.527a8.829,8.829,0,0,1-3.864-10.369,9.694,9.694,0,0,1,9.953-6.782,8,8,0,0,0,7.72-10.765,8.87,8.87,0,0,1,3.215-10.438,10.207,10.207,0,0,1,12.56-.039,8,8,0,0,0,12.421-4.086C295.856,97.8,300.329,96,304,96s8.144,1.8,9.686,6.848a8,8,0,0,0,12.421,4.086,10.2,10.2,0,0,1,12.56.039,8.87,8.87,0,0,1,3.215,10.438,8,8,0,0,0,7.72,10.765,9.715,9.715,0,0,1,9.953,6.782,8.829,8.829,0,0,1-3.864,10.369,8,8,0,0,0,0,13.346,8.829,8.829,0,0,1,3.864,10.369,9.7,9.7,0,0,1-9.953,6.782,8,8,0,0,0-7.72,10.765,8.87,8.87,0,0,1-3.215,10.438,10.207,10.207,0,0,1-12.56.039,8,8,0,0,0-12.421,4.086C312.144,206.2,307.671,208,304,208s-8.144-1.8-9.686-6.848a8,8,0,0,0-12.421-4.086,10.209,10.209,0,0,1-12.56-.039,8.87,8.87,0,0,1-3.215-10.438,8,8,0,0,0-7.72-10.765,9.684,9.684,0,0,1-9.953-6.782,8.829,8.829,0,0,1,3.864-10.369,8,8,0,0,0,0-13.346Z" fill="#2de149" data-original="#000000" style="" class=""/><rect x="86.059" y="232" width="67.882" height="16" transform="translate(-134.558 155.147) rotate(-45)" fill="#2de149" data-original="#000000" style="" class=""/><rect x="110.059" y="256" width="67.882" height="16" transform="translate(-144.5 179.147) rotate(-45)" fill="#2de149" data-original="#000000" style="" class=""/><rect x="134.059" y="280" width="67.882" height="16" transform="translate(-154.441 203.147) rotate(-45)" fill="#2de149" data-original="#000000" style="" class=""/><rect x="158.059" y="304" width="67.882" height="16" transform="translate(-164.382 227.147) rotate(-45)" fill="#2de149" data-original="#000000" style="" class=""/><rect x="211.029" y="316" width="33.941" height="16" transform="translate(-162.323 256.118) rotate(-45)" fill="#2de149" data-original="#000000" style="" class=""/><rect x="193.75" y="171.961" width="16" height="27.577" transform="translate(-72.254 197.064) rotate(-45)" fill="#2de149" data-original="#000000" style="" class=""/><rect x="239" y="195.645" width="16" height="70.711" transform="translate(-90.997 242.314) rotate(-45)" fill="#2de149" data-original="#000000" style="" class=""/><path d="M102.06,71.761a46.891,46.891,0,0,1,34.179,34.179,8,8,0,0,0,15.522,0A46.891,46.891,0,0,1,185.94,71.761a8,8,0,0,0,0-15.522A46.891,46.891,0,0,1,151.761,22.06a8,8,0,0,0-15.522,0A46.891,46.891,0,0,1,102.06,56.239a8,8,0,0,0,0,15.522ZM144,44.18A62.788,62.788,0,0,0,163.82,64,62.788,62.788,0,0,0,144,83.82,62.788,62.788,0,0,0,124.18,64,62.788,62.788,0,0,0,144,44.18Z" fill="#2de149" data-original="#000000" style="" class=""/><rect x="331.505" y="265.833" width="85.324" height="16" transform="translate(-84.038 344.78) rotate(-45)" fill="#2de149" data-original="#000000" style="" class=""/><rect x="412.686" y="216" width="22.627" height="16" transform="translate(-34.205 365.421) rotate(-45)" fill="#2de149" data-original="#000000" style="" class=""/><path d="M488,336H416a8,8,0,0,0-8,8v7.582a125.48,125.48,0,0,0-134.75-7.464L259.238,352H192a39.983,39.983,0,0,0-33.013,62.564L73.659,372.172a37.755,37.755,0,0,0-16.408-3.918l-3.439-.026a37.525,37.525,0,0,0-17.068,71.088L134.909,488.4a72.352,72.352,0,0,0,32.2,7.6H488a8,8,0,0,0,8-8V344A8,8,0,0,0,488,336ZM142.064,474.088,43.9,425.005a21.525,21.525,0,0,1,9.622-40.778h.169l3.437.026A21.668,21.668,0,0,1,66.54,386.5l89.9,44.664A8.012,8.012,0,0,0,160,432H264a8,8,0,0,0,0-16H192a24,24,0,0,1,0-48h69.333a8,8,0,0,0,3.922-1.027l15.839-8.91A109.506,109.506,0,0,1,403.189,368L408,371.845V480H167.108A56.285,56.285,0,0,1,142.064,474.088ZM480,480H424V352h56Z" fill="#2de149" data-original="#000000" style="" class=""/><path d="M452,456a12,12,0,1,0-12-12A12.013,12.013,0,0,0,452,456Z" fill="#2de149" data-original="#000000" style="" class=""/><rect x="200" y="194.745" width="16" height="90.51" transform="translate(-108.784 217.373) rotate(-45)" fill="#2de149" data-original="#000000" style="" class=""/></g></g></svg>
