<?xml version="1.0"?>
<svg xmlns="http://www.w3.org/2000/svg" xmlns:xlink="http://www.w3.org/1999/xlink" xmlns:svgjs="http://svgjs.com/svgjs" version="1.1" width="512" height="512" x="0" y="0" viewBox="0 0 512.12 512.12" style="enable-background:new 0 0 512 512" xml:space="preserve" class=""><g>
<g xmlns="http://www.w3.org/2000/svg" transform="translate(0 -1)">
	<g>
		<g>
			<path d="M475.219,367.527l-130.5,45.787c-1.909,0.668-3.919,1.001-5.942,0.983h-2.033c2.609-9.284,1.412-19.225-3.325-27.625     l-0.667-1.208c-7.702-13.573-22.061-22.006-37.667-22.121h-36.866c-12.711-0.089-24.988-4.635-34.692-12.846     c-12.794-10.723-28.94-16.627-45.633-16.688h-4.325c-2.148,0-45.896,0.399-74.129,24.474c-3.176-4.632-8.43-7.402-14.046-7.408     H17.127c-9.421,0.011-17.056,7.645-17.067,17.067V487.41c0.011,9.421,7.645,17.056,17.067,17.067h68.267     c5.094-0.019,9.909-2.325,13.117-6.282c15.458,10.561,33.952,15.765,52.649,14.816h185.342     c10.744-0.038,21.257-3.116,30.325-8.879l132.117-84.671c6.577-4.331,11.112-11.148,12.567-18.888     c1.538-7.991-0.24-16.263-4.925-22.917C499.507,367.733,486.764,363.618,475.219,367.527z M85.393,487.41H17.127V367.943h68.267     V487.41z M494.752,397.352c-0.55,3.169-2.375,5.973-5.05,7.758l-132.025,84.612c-6.331,4.029-13.671,6.185-21.175,6.221H151.16     c-32.625,0-45.325-12.829-48.7-17.188v-99.004c20.842-28.421,70.608-28.875,71.108-28.875h4.325     c12.695,0.058,24.968,4.559,34.692,12.721c12.774,10.774,28.923,16.723,45.633,16.813h36.867     c9.449,0.018,18.153,5.133,22.767,13.379l0.667,1.208c3.372,6.034,3.208,13.422-0.429,19.3h-42.004     c-14.349,0.041-28.337,4.505-40.058,12.783l-5.117,3.592c-2.495,1.751-3.866,4.699-3.598,7.735     c0.269,3.036,2.137,5.698,4.9,6.983c2.764,1.285,6.003,0.999,8.498-0.752l5.1-3.575c8.855-6.268,19.426-9.655,30.275-9.7h62.692     c3.985,0.019,7.944-0.652,11.7-1.983l130.309-45.72c4.403-1.493,9.263,0.108,11.917,3.925     C494.683,390.428,495.423,393.953,494.752,397.352z" fill="#2de149" data-original="#000000" style="" class=""/>
			<path d="M36.668,459.335c1.636,1.558,3.8,2.442,6.059,2.475c1.115-0.014,2.216-0.246,3.242-0.683     c1.033-0.435,1.985-1.041,2.817-1.791c1.557-1.637,2.44-3.8,2.475-6.059c0.028-1.12-0.206-2.232-0.683-3.246     c-0.432-1.033-1.038-1.984-1.791-2.813c-0.831-0.754-1.783-1.361-2.817-1.796c-2.069-0.894-4.415-0.894-6.483,0     c-1.045,0.413-2.002,1.023-2.817,1.796c-0.753,0.829-1.359,1.78-1.792,2.813c-0.911,2.067-0.911,4.421,0,6.487     C35.289,457.562,35.897,458.518,36.668,459.335z" fill="#2de149" data-original="#000000" style="" class=""/>
			<path d="M177.86,197.206l41.216,11.783c2.396,7.893,5.555,15.533,9.433,22.813l-20.808,37.467     c-1.694,3.046-1.364,6.816,0.833,9.521c7.626,9.489,16.26,18.121,25.75,25.746c2.705,2.193,6.471,2.523,9.517,0.833     l37.467-20.804c7.279,3.877,14.918,7.037,22.809,9.433l11.783,41.221c0.96,3.35,3.859,5.781,7.325,6.142     c12.104,1.311,24.313,1.311,36.417,0c3.466-0.361,6.365-2.792,7.325-6.142l11.783-41.221c7.891-2.396,15.53-5.556,22.808-9.433     l37.467,20.804c3.047,1.683,6.809,1.353,9.517-0.833c9.485-7.631,18.118-16.262,25.75-25.746     c2.197-2.705,2.527-6.475,0.833-9.521l-20.808-37.467c3.878-7.28,7.038-14.92,9.433-22.813l41.217-11.783     c3.349-0.954,5.78-3.849,6.142-7.313c1.322-12.108,1.322-24.325,0-36.433c-0.361-3.463-2.793-6.358-6.142-7.312l-41.216-11.783     c-2.396-7.893-5.555-15.533-9.433-22.813l20.808-37.467c1.694-3.046,1.364-6.816-0.833-9.521     c-7.626-9.489-16.26-18.121-25.75-25.746c-2.704-2.197-6.472-2.527-9.517-0.833l-37.467,20.804     c-7.279-3.876-14.918-7.035-22.808-9.433L366.927,8.135c-0.96-3.35-3.859-5.781-7.325-6.142c-12.103-1.325-24.314-1.325-36.417,0     c-3.466,0.361-6.365,2.792-7.325,6.142l-11.783,41.221c-7.891,2.398-15.529,5.557-22.809,9.433l-37.467-20.804     c-3.044-1.693-6.813-1.364-9.517,0.833c-9.485,7.63-18.118,16.262-25.75,25.746c-2.197,2.705-2.527,6.475-0.833,9.521     l20.808,37.467c-3.878,7.28-7.038,14.92-9.433,22.813l-41.216,11.783c-3.349,0.954-5.78,3.849-6.142,7.312     c-1.322,12.109-1.322,24.325,0,36.433C172.08,193.357,174.511,196.252,177.86,197.206z M188.185,160.943l40.142-11.475     c2.896-0.827,5.142-3.12,5.908-6.033c2.537-9.665,6.375-18.94,11.408-27.571c1.524-2.6,1.559-5.813,0.092-8.446l-20.267-36.492     c2.408-2.775,4.825-5.375,7.308-7.858c2.483-2.487,5.092-4.908,7.867-7.317l36.492,20.262c2.636,1.461,5.847,1.427,8.451-0.092     c8.626-5.034,17.897-8.869,27.558-11.4c2.914-0.767,5.21-3.012,6.042-5.908l11.475-40.15c7.146-0.517,14.32-0.517,21.467,0     l11.475,40.15c0.832,2.897,3.127,5.141,6.042,5.908c9.661,2.531,18.932,6.366,27.558,11.4c2.604,1.518,5.814,1.553,8.45,0.092     l36.492-20.263c2.775,2.408,5.375,4.829,7.867,7.308c2.483,2.488,4.9,5.088,7.308,7.867l-20.266,36.492     c-1.467,2.633-1.433,5.845,0.092,8.446c5.034,8.631,8.871,17.907,11.408,27.571c0.766,2.913,3.012,5.206,5.908,6.033     l40.142,11.475c0.266,3.667,0.391,7.212,0.391,10.733c0,3.521-0.125,7.067-0.392,10.733h0l-40.141,11.475     c-2.896,0.827-5.142,3.12-5.908,6.033c-2.537,9.665-6.375,18.94-11.408,27.571c-1.524,2.6-1.559,5.813-0.092,8.446l20.267,36.492     c-2.408,2.775-4.825,5.375-7.308,7.858c-2.492,2.492-5.092,4.908-7.867,7.313l-36.492-20.258c-2.633-1.474-5.85-1.439-8.45,0.092     c-8.626,5.034-17.897,8.869-27.558,11.4c-2.914,0.767-5.21,3.012-6.042,5.908l-11.475,40.15c-7.146,0.517-14.32,0.517-21.467,0     l-11.475-40.15c-0.832-2.897-3.127-5.141-6.042-5.908c-9.661-2.531-18.932-6.366-27.558-11.4c-2.6-1.53-5.817-1.565-8.45-0.092     l-36.492,20.258c-2.775-2.404-5.375-4.821-7.867-7.304c-2.483-2.488-4.9-5.088-7.308-7.867l20.267-36.492     c1.467-2.633,1.433-5.845-0.092-8.446c-5.034-8.631-8.872-17.907-11.408-27.571c-0.766-2.913-3.012-5.206-5.908-6.033     l-40.142-11.475c-0.267-3.666-0.392-7.212-0.392-10.733C187.793,168.156,187.918,164.61,188.185,160.943z" fill="#2de149" data-original="#000000" style="" class=""/>
			<path d="M341.393,257.01c47.128,0,85.333-38.205,85.333-85.333c-0.054-47.106-38.227-85.279-85.333-85.333     c-47.128,0-85.333,38.205-85.333,85.333S294.265,257.01,341.393,257.01z M341.393,103.41c37.703,0,68.267,30.564,68.267,68.267     c-0.043,37.685-30.582,68.224-68.267,68.267c-37.703,0-68.267-30.564-68.267-68.267S303.691,103.41,341.393,103.41z" fill="#2de149" data-original="#000000" style="" class=""/>
		</g>
	</g>
</g>
<g xmlns="http://www.w3.org/2000/svg">
</g>
<g xmlns="http://www.w3.org/2000/svg">
</g>
<g xmlns="http://www.w3.org/2000/svg">
</g>
<g xmlns="http://www.w3.org/2000/svg">
</g>
<g xmlns="http://www.w3.org/2000/svg">
</g>
<g xmlns="http://www.w3.org/2000/svg">
</g>
<g xmlns="http://www.w3.org/2000/svg">
</g>
<g xmlns="http://www.w3.org/2000/svg">
</g>
<g xmlns="http://www.w3.org/2000/svg">
</g>
<g xmlns="http://www.w3.org/2000/svg">
</g>
<g xmlns="http://www.w3.org/2000/svg">
</g>
<g xmlns="http://www.w3.org/2000/svg">
</g>
<g xmlns="http://www.w3.org/2000/svg">
</g>
<g xmlns="http://www.w3.org/2000/svg">
</g>
<g xmlns="http://www.w3.org/2000/svg">
</g>
</g></svg>
